<svg width="43" height="43" viewBox="0 0 43 43" fill="none" xmlns="http://www.w3.org/2000/svg">
<path d="M41 21.5C41 32.2696 32.2696 41 21.5 41C10.7304 41 2 32.2696 2 21.5C2 10.7304 10.7304 2 21.5 2C32.2696 2 41 10.7304 41 21.5Z" fill="#D91604"/>
<path d="M34.7968 38.0796C33.1237 38.6906 31.4413 38.9076 29.7497 38.7307C28.0638 38.5323 26.4643 38.0116 24.9511 37.1686C23.4561 36.3189 22.1431 35.2187 21.0121 33.8679L4.86732 14.5849C3.74874 13.2489 3.05118 11.9337 2.77463 10.6391C2.51627 9.33781 2.71712 8.15961 3.37719 7.10445C4.03726 6.0493 5.17656 5.22619 6.79509 4.63512C8.01353 4.19015 9.26003 3.97723 10.5346 3.99635C11.8091 4.01547 13.0563 4.22874 14.276 4.63617C15.5015 5.02211 16.6565 5.57915 17.7411 6.3073C18.8133 7.0206 19.7595 7.86712 20.5798 8.84686L24.3457 13.3447L18.8354 15.357L15.0695 10.8592C14.4978 10.1763 13.8465 9.6679 13.1157 9.33391C12.3849 8.99992 11.6194 8.97903 10.8192 9.27125C10.0918 9.5369 9.76327 9.96701 9.83364 10.5616C9.90401 11.1561 10.2126 11.78 10.7595 12.4332L26.9043 31.7161C27.4511 32.3692 28.0962 32.8702 28.8394 33.219C29.6009 33.5612 30.318 33.6095 30.9909 33.3637C31.8092 33.0649 32.1895 32.6256 32.1315 32.0459C32.0918 31.4595 31.786 30.8249 31.2143 30.1421L27.4484 25.6442L32.9587 23.6319L36.7246 28.1297C37.8431 29.4657 38.5316 30.7844 38.79 32.0856C39.0483 33.3868 38.8475 34.565 38.1874 35.6202C37.5455 36.6687 36.4153 37.4885 34.7968 38.0796Z" fill="#F4F4F4"/>
<path d="M21.5 42C24.8358 42 27.9855 41.2033 30.7692 39.7897C32.2389 39.8044 33.6976 39.5456 35.1398 39.0189C36.885 38.3816 38.2383 37.4497 39.0378 36.1464C39.8403 34.8613 40.0749 33.4222 39.7708 31.8909C39.7221 31.6457 39.6606 31.4016 39.5866 31.1586C41.1267 28.2807 42 24.9923 42 21.5C42 10.1782 32.8218 1 21.5 1C18.2146 1 15.1098 1.77283 12.3573 3.14662C11.7606 3.05568 11.158 3.00559 10.5496 2.99646C9.15081 2.97548 7.78308 3.20971 6.45205 3.69579C4.70356 4.33433 3.34553 5.2695 2.52941 6.57411L3.37719 7.10445L2.52941 6.57411C1.72479 7.86033 1.4894 9.30082 1.79378 10.8338L1.79518 10.8409L1.79669 10.848C1.97043 11.6613 2.28399 12.4638 2.72533 13.2554C1.61587 15.7782 1 18.5672 1 21.5C1 32.8218 10.1782 42 21.5 42Z" stroke="#D91604" stroke-width="2"/>
</svg>
