<svg width="156" height="131" viewBox="0 0 156 131" fill="none" xmlns="http://www.w3.org/2000/svg">
<path d="M37.7968 103.247C36.1237 103.858 34.4413 104.075 32.7497 103.898C31.0638 103.7 29.4643 103.179 27.9511 102.336C26.4561 101.486 25.1431 100.386 24.0121 99.0351L7.86731 79.7522C6.74874 78.4162 6.05118 77.1009 5.77463 75.8063C5.51627 74.5051 5.71712 73.3269 6.37719 72.2717C7.03726 71.2166 8.17656 70.3935 9.79509 69.8024C11.0135 69.3574 12.26 69.1445 13.5346 69.1636C14.8091 69.1827 16.0563 69.396 17.276 69.8034C18.5015 70.1894 19.6565 70.7464 20.7411 71.4746C21.8133 72.1879 22.7595 73.0344 23.5798 74.0141L27.3456 78.512L21.8354 80.5243L18.0695 76.0264C17.4978 75.3436 16.8465 74.8352 16.1157 74.5012C15.3849 74.1672 14.6194 74.1463 13.8192 74.4385C13.0918 74.7042 12.7633 75.1343 12.8336 75.7289C12.904 76.3234 13.2126 76.9473 13.7595 77.6004L29.9043 96.8833C30.4511 97.5365 31.0962 98.0375 31.8394 98.3863C32.6009 98.7285 33.318 98.7767 33.9909 98.531C34.8092 98.2321 35.1895 97.7929 35.1315 97.2131C35.0917 96.6268 34.786 95.9922 34.2143 95.3093L30.4484 90.8115L35.9587 88.7992L39.7246 93.297C40.8431 94.633 41.5316 95.9516 41.79 97.2529C42.0483 98.5541 41.8475 99.7323 41.1874 100.787C40.5455 101.836 39.4153 102.656 37.7968 103.247Z" fill="#D95B4F"/>
<path d="M55.7033 96.6494C53.5028 97.453 51.2718 97.4827 49.0103 96.7385C46.7363 95.9795 44.8225 94.6723 43.2689 92.8167L33.0526 80.6146C31.499 78.7591 30.8463 77.001 31.0944 75.3403C31.3301 73.6648 32.5481 72.4253 34.7486 71.6217C36.9309 70.8247 39.159 70.8057 41.433 71.5647C43.7127 72.3022 45.6293 73.5988 47.1829 75.4543L57.3992 87.6564C58.9528 89.512 59.6027 91.2808 59.3488 92.9629C59.1007 94.6236 57.8856 95.8524 55.7033 96.6494ZM52.4221 92.7304C53.1314 92.4714 53.4297 92.062 53.3172 91.5022C53.1923 90.9276 52.8253 90.2766 52.2163 89.5492L42 77.3471C41.3786 76.6049 40.7388 76.0535 40.0807 75.6929C39.4227 75.3324 38.739 75.2816 38.0298 75.5406C37.3205 75.7996 37.0221 76.209 37.1346 76.7688C37.2471 77.3286 37.6141 77.9796 38.2355 78.7218L48.4519 90.9239C49.0733 91.6662 49.7131 92.2175 50.3711 92.5781C51.0292 92.9387 51.7129 92.9894 52.4221 92.7304Z" fill="#D95B4F"/>
<path d="M57.2758 82.7588L53.7336 78.5281L61.6444 75.6391L65.1866 79.8698L57.2758 82.7588Z" fill="#D95B4F"/>
<path d="M83.8257 86.4083C81.407 87.2916 79.109 87.3264 76.9317 86.5127C74.7726 85.6924 72.7733 84.1837 70.9339 81.9868L61.6684 70.9202C59.8165 68.7084 58.9447 66.788 59.0531 65.159C59.1672 63.5085 60.4336 62.2416 62.8523 61.3583C65.271 60.475 67.569 60.4402 69.7463 61.2539C71.9418 62.061 73.9592 63.563 75.7987 65.7599L77.4019 67.6749L71.8917 69.6872L69.8037 67.1933C69.232 66.5105 68.6443 65.9788 68.0408 65.5983C67.4373 65.2179 66.8264 65.1405 66.2081 65.3663C65.5898 65.5921 65.3794 65.9791 65.5771 66.5271C65.7624 67.0604 66.1346 67.661 66.6939 68.329L76.9289 80.5534C77.4882 81.2214 78.0667 81.7564 78.6645 82.1583C79.2498 82.5454 79.8516 82.6261 80.4699 82.4003C81.0882 82.1745 81.3139 81.7916 81.1468 81.2518C80.9798 80.7119 80.6104 80.1005 80.0386 79.4177L77.9506 76.9238L83.4609 74.9115L85.0642 76.8264C86.9036 79.0234 87.7572 80.9505 87.6249 82.6076C87.5108 84.2581 86.2444 85.525 83.8257 86.4083Z" fill="#D95B4F"/>
<path d="M100.138 80.4222C97.937 81.2258 95.706 81.2555 93.4445 80.5114C91.1705 79.7524 89.2568 78.4451 87.7032 76.5896L77.4869 64.3875C75.9333 62.5319 75.2805 60.7738 75.5286 59.1132C75.7643 57.4377 76.9824 56.1981 79.1828 55.3945C81.3651 54.5976 83.5932 54.5786 85.8672 55.3376C88.1469 56.0751 90.0636 57.3716 91.6172 59.2272L101.833 71.4293C103.387 73.2848 104.037 75.0537 103.783 76.7358C103.535 78.3964 102.32 79.6253 100.138 80.4222ZM96.8564 76.5033C97.5656 76.2443 97.864 75.8349 97.7515 75.2751C97.6265 74.7004 97.2596 74.0494 96.6506 73.322L86.4342 61.1199C85.8128 60.3777 85.173 59.8263 84.515 59.4658C83.8569 59.1052 83.1732 59.0544 82.464 59.3135C81.7548 59.5725 81.4564 59.9819 81.5689 60.5417C81.6814 61.1015 82.0484 61.7525 82.6698 62.4947L92.8861 74.6968C93.5076 75.439 94.1473 75.9904 94.8054 76.351C95.4634 76.7115 96.1471 76.7623 96.8564 76.5033Z" fill="#D95B4F"/>
<path d="M116.441 74.4684C114.24 75.272 112.009 75.3017 109.748 74.5576C107.474 73.7986 105.56 72.4913 104.006 70.6357L93.7901 58.4336C92.2365 56.5781 91.5837 54.82 91.8318 53.1593C92.0675 51.4838 93.2856 50.2443 95.4861 49.4407C97.6683 48.6437 99.8965 48.6247 102.17 49.3837C104.45 50.1212 106.367 51.4178 107.92 53.2733L118.137 65.4754C119.69 67.331 120.34 69.0998 120.086 70.782C119.838 72.4426 118.623 73.6714 116.441 74.4684ZM113.16 70.5494C113.869 70.2904 114.167 69.881 114.055 69.3212C113.93 68.7466 113.563 68.0956 112.954 67.3682L102.737 55.1661C102.116 54.4239 101.476 53.8725 100.818 53.5119C100.16 53.1514 99.4764 53.1006 98.7672 53.3596C98.058 53.6186 97.7596 54.028 97.8721 54.5878C97.9846 55.1476 98.3516 55.7986 98.973 56.5409L109.189 68.743C109.811 69.4852 110.451 70.0366 111.109 70.3971C111.767 70.7577 112.45 70.8085 113.16 70.5494Z" fill="#D95B4F"/>
<path d="M125.691 70.6833L98.2854 37.9514L103.796 35.9391L116.808 51.4812L117.081 51.3816L116.737 50.4604L114.079 43.1159L119.316 41.2032L121.698 50.6842L140.476 65.2839L134.911 67.3162L123.943 58.4705L123.59 58.1342L123.535 58.1541L124.154 60.2542L131.201 68.671L125.691 70.6833Z" fill="#D95B4F"/>
<path d="M136.623 55.1771L115.128 31.8007L121.511 29.4695L140.06 53.9218L136.623 55.1771ZM142.86 64.413L138.722 59.4699L144.45 57.3778L148.589 62.321L142.86 64.413Z" fill="#D95B4F"/>
<path d="M38.5733 100.349C36.9002 100.96 35.2178 101.177 33.5262 101C31.8403 100.802 30.2407 100.281 28.7276 99.4381C27.2326 98.5884 25.9196 97.4882 24.7886 96.1373L8.64377 76.8544C7.5252 75.5185 6.82763 74.2032 6.55109 72.9086C6.29272 71.6073 6.49358 70.4291 7.15365 69.374C7.81372 68.3188 8.95302 67.4957 10.5715 66.9046C11.79 66.4596 13.0365 66.2467 14.311 66.2658C15.5856 66.285 16.8328 66.4982 18.0525 66.9057C19.278 67.2916 20.433 67.8486 21.5176 68.5768C22.5897 69.2901 23.5359 70.1366 24.3562 71.1163L28.1221 75.6142L22.6118 77.6265L18.846 73.1287C18.2742 72.4458 17.623 71.9374 16.8922 71.6034C16.1613 71.2694 15.3959 71.2485 14.5957 71.5407C13.8683 71.8064 13.5397 72.2365 13.6101 72.8311C13.6805 73.4257 13.9891 74.0495 14.5359 74.7027L30.6807 93.9855C31.2276 94.6387 31.8726 95.1397 32.6159 95.4885C33.3773 95.8307 34.0945 95.879 34.7673 95.6332C35.5857 95.3344 35.9659 94.8951 35.908 94.3154C35.8682 93.729 35.5625 93.0944 34.9908 92.4116L31.2249 87.9137L36.7351 85.9014L40.501 90.3992C41.6196 91.7352 42.3081 93.0539 42.5664 94.3551C42.8248 95.6563 42.6239 96.8345 41.9639 97.8897C41.322 98.9382 40.1918 99.758 38.5733 100.349Z" fill="#FCFCFC"/>
<path d="M56.4797 93.7516C54.2793 94.5552 52.0482 94.5849 49.7867 93.8408C47.5128 93.0818 45.599 91.7745 44.0454 89.9189L33.8291 77.7168C32.2755 75.8613 31.6228 74.1032 31.8708 72.4425C32.1065 70.7671 33.3246 69.5275 35.5251 68.7239C37.7073 67.9269 39.9355 67.908 42.2094 68.667C44.4891 69.4045 46.4058 70.701 47.9594 72.5565L58.1757 84.7586C59.7293 86.6142 60.3791 88.383 60.1253 90.0652C59.8772 91.7258 58.662 92.9546 56.4797 93.7516ZM53.1986 89.8327C53.9078 89.5736 54.2062 89.1642 54.0937 88.6044C53.9687 88.0298 53.6018 87.3788 52.9928 86.6514L42.7764 74.4493C42.155 73.7071 41.5153 73.1557 40.8572 72.7951C40.1991 72.4346 39.5155 72.3838 38.8062 72.6428C38.097 72.9018 37.7986 73.3112 37.9111 73.871C38.0236 74.4308 38.3906 75.0818 39.012 75.8241L49.2283 88.0262C49.8498 88.7684 50.4895 89.3198 51.1476 89.6803C51.8057 90.0409 52.4893 90.0917 53.1986 89.8327Z" fill="#FCFCFC"/>
<path d="M58.0522 79.861L54.5101 75.6303L62.4209 72.7414L65.963 76.972L58.0522 79.861Z" fill="#FCFCFC"/>
<path d="M84.6021 83.5105C82.1834 84.3938 79.8854 84.4286 77.7082 83.6149C75.5491 82.7946 73.5498 81.286 71.7104 79.089L62.4448 68.0225C60.5929 65.8107 59.7212 63.8902 59.8296 62.2612C59.9437 60.6108 61.2101 59.3439 63.6288 58.4606C66.0475 57.5773 68.3455 57.5425 70.5228 58.3561C72.7182 59.1632 74.7357 60.6652 76.5751 62.8622L78.1784 64.7771L72.6681 66.7894L70.5801 64.2956C70.0084 63.6127 69.4208 63.0811 68.8173 62.7006C68.2138 62.3201 67.6028 62.2427 66.9845 62.4686C66.3662 62.6944 66.1559 63.0813 66.3536 63.6294C66.5388 64.1626 66.9111 64.7632 67.4704 65.4312L77.7054 77.6556C78.2646 78.3236 78.8432 78.8586 79.4409 79.2605C80.0262 79.6477 80.6281 79.7283 81.2464 79.5025C81.8647 79.2767 82.0903 78.8939 81.9233 78.354C81.7562 77.8141 81.3868 77.2028 80.8151 76.5199L78.7271 74.0261L84.2374 72.0137L85.8407 73.9287C87.6801 76.1257 88.5337 78.0527 88.4014 79.7098C88.2872 81.3603 87.0208 82.6272 84.6021 83.5105Z" fill="#FCFCFC"/>
<path d="M100.914 77.5244C98.7135 78.328 96.4825 78.3578 94.221 77.6136C91.947 76.8546 90.0332 75.5474 88.4796 73.6918L78.2633 61.4897C76.7097 59.6342 76.057 57.8761 76.3051 56.2154C76.5408 54.5399 77.7588 53.3004 79.9593 52.4968C82.1416 51.6998 84.3697 51.6808 86.6437 52.4398C88.9234 53.1773 90.84 54.4738 92.3936 56.3294L102.61 68.5315C104.164 70.3871 104.813 72.1559 104.56 73.838C104.311 75.4987 103.096 76.7275 100.914 77.5244ZM97.6328 73.6055C98.3421 73.3465 98.6404 72.9371 98.5279 72.3773C98.403 71.8027 98.036 71.1517 97.427 70.4243L87.2107 58.2222C86.5893 57.48 85.9495 56.9286 85.2914 56.568C84.6334 56.2075 83.9497 56.1567 83.2405 56.4157C82.5312 56.6747 82.2328 57.0841 82.3453 57.6439C82.4578 58.2037 82.8248 58.8547 83.4462 59.5969L93.6626 71.799C94.284 72.5413 94.9238 73.0926 95.5818 73.4532C96.2399 73.8138 96.9236 73.8645 97.6328 73.6055Z" fill="#FCFCFC"/>
<path d="M117.217 71.5706C115.017 72.3742 112.786 72.4039 110.524 71.6598C108.25 70.9008 106.336 69.5935 104.783 67.738L94.5665 55.5359C93.0129 53.6803 92.3602 51.9222 92.6083 50.2616C92.844 48.5861 94.062 47.3465 96.2625 46.5429C98.4448 45.746 100.673 45.727 102.947 46.486C105.227 47.2235 107.143 48.52 108.697 50.3756L118.913 62.5777C120.467 64.4332 121.117 66.2021 120.863 67.8842C120.615 69.5448 119.399 70.7736 117.217 71.5706ZM113.936 67.6517C114.645 67.3927 114.944 66.9833 114.831 66.4235C114.706 65.8488 114.339 65.1978 113.73 64.4704L103.514 52.2683C102.892 51.5261 102.253 50.9747 101.595 50.6142C100.937 50.2536 100.253 50.2028 99.5437 50.4618C98.8344 50.7209 98.536 51.1303 98.6486 51.6901C98.7611 52.2499 99.128 52.9009 99.7494 53.6431L109.966 65.8452C110.587 66.5874 111.227 67.1388 111.885 67.4994C112.543 67.8599 113.227 67.9107 113.936 67.6517Z" fill="#FCFCFC"/>
<path d="M126.467 67.7856L99.0619 35.0536L104.572 33.0413L117.585 48.5834L117.858 48.4838L117.514 47.5626L114.855 40.2181L120.093 38.3054L122.474 47.7864L141.252 62.3862L135.687 64.4184L124.719 55.5728L124.366 55.2364L124.312 55.2563L124.93 57.3565L131.977 65.7732L126.467 67.7856Z" fill="#FCFCFC"/>
<path d="M137.4 52.2793L115.904 28.9029L122.287 26.5718L140.837 51.0241L137.4 52.2793ZM143.637 61.5153L139.498 56.5721L145.227 54.4801L149.365 59.4233L143.637 61.5153Z" fill="#FCFCFC"/>
</svg>
