<svg width="156" height="130" viewBox="0 0 156 130" fill="none" xmlns="http://www.w3.org/2000/svg">
<path d="M37.7968 102.646C36.1237 103.257 34.4413 103.474 32.7497 103.297C31.0638 103.098 29.4643 102.578 27.9511 101.735C26.4561 100.885 25.1431 99.7847 24.0121 98.4338L7.86731 79.1509C6.74874 77.8149 6.05118 76.4996 5.77463 75.205C5.51627 73.9038 5.71712 72.7256 6.37719 71.6704C7.03726 70.6153 8.17656 69.7922 9.79509 69.2011C11.0135 68.7561 12.26 68.5432 13.5346 68.5623C14.8091 68.5814 16.0563 68.7947 17.276 69.2021C18.5015 69.5881 19.6565 70.1451 20.7411 70.8733C21.8133 71.5866 22.7595 72.4331 23.5798 73.4128L27.3456 77.9107L21.8354 79.923L18.0695 75.4251C17.4978 74.7423 16.8465 74.2339 16.1157 73.8999C15.3849 73.5659 14.6194 73.545 13.8192 73.8372C13.0918 74.1029 12.7633 74.533 12.8336 75.1276C12.904 75.7221 13.2126 76.346 13.7595 76.9991L29.9043 96.282C30.4511 96.9352 31.0962 97.4362 31.8394 97.785C32.6009 98.1272 33.318 98.1754 33.9909 97.9297C34.8092 97.6309 35.1895 97.1916 35.1315 96.6118C35.0917 96.0255 34.786 95.3909 34.2143 94.708L30.4484 90.2102L35.9587 88.1979L39.7246 92.6957C40.8431 94.0317 41.5316 95.3503 41.79 96.6516C42.0483 97.9528 41.8475 99.131 41.1874 100.186C40.5455 101.235 39.4153 102.054 37.7968 102.646Z" fill="#F3B5A8"/>
<path d="M55.7033 96.0481C53.5028 96.8517 51.2718 96.8814 49.0103 96.1372C46.7363 95.3783 44.8225 94.071 43.2689 92.2154L33.0526 80.0133C31.499 78.1578 30.8463 76.3997 31.0944 74.739C31.3301 73.0635 32.5481 71.824 34.7486 71.0204C36.9309 70.2234 39.159 70.2044 41.433 70.9634C43.7127 71.7009 45.6293 72.9975 47.1829 74.853L57.3992 87.0551C58.9528 88.9107 59.6027 90.6795 59.3488 92.3616C59.1007 94.0223 57.8856 95.2511 55.7033 96.0481ZM52.4221 92.1291C53.1314 91.8701 53.4297 91.4607 53.3172 90.9009C53.1923 90.3263 52.8253 89.6753 52.2163 88.9479L42 76.7458C41.3786 76.0036 40.7388 75.4522 40.0807 75.0916C39.4227 74.7311 38.739 74.6803 38.0298 74.9393C37.3205 75.1983 37.0221 75.6077 37.1346 76.1675C37.2471 76.7273 37.6141 77.3783 38.2355 78.1205L48.4519 90.3227C49.0733 91.0649 49.7131 91.6163 50.3711 91.9768C51.0292 92.3374 51.7129 92.3882 52.4221 92.1291Z" fill="#F3B5A8"/>
<path d="M57.2758 82.1575L53.7336 77.9268L61.6444 75.0378L65.1866 79.2685L57.2758 82.1575Z" fill="#F3B5A8"/>
<path d="M83.8257 85.807C81.407 86.6903 79.109 86.7251 76.9317 85.9114C74.7726 85.0911 72.7733 83.5824 70.9339 81.3855L61.6684 70.319C59.8165 68.1071 58.9447 66.1867 59.0531 64.5577C59.1672 62.9072 60.4336 61.6403 62.8523 60.7571C65.271 59.8738 67.569 59.8389 69.7463 60.6526C71.9418 61.4597 73.9592 62.9617 75.7987 65.1587L77.4019 67.0736L71.8917 69.0859L69.8037 66.592C69.232 65.9092 68.6443 65.3775 68.0408 64.9971C67.4373 64.6166 66.8264 64.5392 66.2081 64.765C65.5898 64.9908 65.3794 65.3778 65.5771 65.9259C65.7624 66.4591 66.1346 67.0597 66.6939 67.7277L76.9289 79.9521C77.4882 80.6201 78.0667 81.1551 78.6645 81.557C79.2498 81.9442 79.8516 82.0248 80.4699 81.799C81.0882 81.5732 81.3139 81.1904 81.1468 80.6505C80.9798 80.1106 80.6104 79.4993 80.0386 78.8164L77.9506 76.3226L83.4609 74.3102L85.0642 76.2252C86.9036 78.4221 87.7572 80.3492 87.6249 82.0063C87.5108 83.6568 86.2444 84.9237 83.8257 85.807Z" fill="#F3B5A8"/>
<path d="M100.138 79.8209C97.937 80.6245 95.706 80.6543 93.4445 79.9101C91.1705 79.1511 89.2568 77.8438 87.7032 75.9883L77.4869 63.7862C75.9333 61.9306 75.2805 60.1725 75.5286 58.5119C75.7643 56.8364 76.9824 55.5968 79.1828 54.7932C81.3651 53.9963 83.5932 53.9773 85.8672 54.7363C88.1469 55.4738 90.0636 56.7703 91.6172 58.6259L101.833 70.828C103.387 72.6835 104.037 74.4524 103.783 76.1345C103.535 77.7952 102.32 79.024 100.138 79.8209ZM96.8564 75.902C97.5656 75.643 97.864 75.2336 97.7515 74.6738C97.6265 74.0991 97.2596 73.4481 96.6506 72.7208L86.4342 60.5187C85.8128 59.7764 85.173 59.225 84.515 58.8645C83.8569 58.5039 83.1732 58.4532 82.464 58.7122C81.7548 58.9712 81.4564 59.3806 81.5689 59.9404C81.6814 60.5002 82.0484 61.1512 82.6698 61.8934L92.8861 74.0955C93.5076 74.8377 94.1473 75.3891 94.8054 75.7497C95.4634 76.1102 96.1471 76.161 96.8564 75.902Z" fill="#F3B5A8"/>
<path d="M116.441 73.8671C114.24 74.6707 112.009 74.7004 109.748 73.9563C107.474 73.1973 105.56 71.89 104.006 70.0344L93.7901 57.8323C92.2365 55.9768 91.5837 54.2187 91.8318 52.558C92.0675 50.8825 93.2856 49.643 95.4861 48.8394C97.6683 48.0424 99.8965 48.0235 102.17 48.7825C104.45 49.52 106.367 50.8165 107.92 52.672L118.137 64.8741C119.69 66.7297 120.34 68.4985 120.086 70.1807C119.838 71.8413 118.623 73.0701 116.441 73.8671ZM113.16 69.9482C113.869 69.6891 114.167 69.2797 114.055 68.7199C113.93 68.1453 113.563 67.4943 112.954 66.7669L102.737 54.5648C102.116 53.8226 101.476 53.2712 100.818 52.9106C100.16 52.5501 99.4764 52.4993 98.7672 52.7583C98.058 53.0173 97.7596 53.4267 97.8721 53.9865C97.9846 54.5463 98.3516 55.1973 98.973 55.9396L109.189 68.1417C109.811 68.8839 110.451 69.4353 111.109 69.7958C111.767 70.1564 112.45 70.2072 113.16 69.9482Z" fill="#F3B5A8"/>
<path d="M125.691 70.082L98.2854 37.3501L103.796 35.3378L116.808 50.8799L117.081 50.7803L116.737 49.8591L114.079 42.5146L119.316 40.6019L121.698 50.0829L140.476 64.6826L134.911 66.7149L123.943 57.8692L123.59 57.5329L123.535 57.5528L124.154 59.6529L131.201 68.0697L125.691 70.082Z" fill="#F3B5A8"/>
<path d="M136.623 54.5758L115.128 31.1994L121.511 28.8683L140.06 53.3206L136.623 54.5758ZM142.86 63.8117L138.722 58.8686L144.45 56.7765L148.589 61.7197L142.86 63.8117Z" fill="#F3B5A8"/>
<path d="M38.5732 99.7478C36.9002 100.359 35.2178 100.576 33.5262 100.399C31.8403 100.2 30.2407 99.6798 28.7276 98.8368C27.2326 97.9871 25.9196 96.8869 24.7886 95.5361L8.64377 76.2532C7.5252 74.9172 6.82763 73.6019 6.55109 72.3073C6.29272 71.006 6.49358 69.8278 7.15365 68.7727C7.81372 67.7175 8.95302 66.8944 10.5715 66.3033C11.79 65.8584 13.0365 65.6454 14.311 65.6646C15.5856 65.6837 16.8328 65.8969 18.0525 66.3044C19.278 66.6903 20.433 67.2474 21.5176 67.9755C22.5897 68.6888 23.5359 69.5353 24.3562 70.5151L28.1221 75.0129L22.6118 77.0252L18.846 72.5274C18.2742 71.8445 17.623 71.3361 16.8922 71.0021C16.1613 70.6681 15.3958 70.6473 14.5957 70.9395C13.8682 71.2051 13.5397 71.6352 13.6101 72.2298C13.6805 72.8244 13.9891 73.4482 14.5359 74.1014L30.6807 93.3843C31.2276 94.0374 31.8726 94.5384 32.6159 94.8873C33.3773 95.2294 34.0945 95.2777 34.7673 95.032C35.5857 94.7331 35.9659 94.2938 35.908 93.7141C35.8682 93.1277 35.5625 92.4931 34.9907 91.8103L31.2249 87.3124L36.7351 85.3001L40.501 89.798C41.6196 91.134 42.3081 92.4526 42.5664 93.7538C42.8248 95.0551 42.6239 96.2333 41.9639 97.2884C41.322 98.3369 40.1918 99.1567 38.5732 99.7478Z" fill="#D91604"/>
<path d="M56.4797 93.1503C54.2793 93.9539 52.0483 93.9836 49.7867 93.2395C47.5128 92.4805 45.599 91.1732 44.0454 89.3177L33.8291 77.1156C32.2755 75.26 31.6227 73.5019 31.8708 71.8413C32.1065 70.1658 33.3246 68.9262 35.5251 68.1226C37.7073 67.3257 39.9355 67.3067 42.2094 68.0657C44.4891 68.8032 46.4058 70.0997 47.9594 71.9552L58.1757 84.1574C59.7293 86.0129 60.3791 87.7818 60.1253 89.4639C59.8772 91.1245 58.662 92.3533 56.4797 93.1503ZM53.1986 89.2314C53.9078 88.9724 54.2062 88.563 54.0937 88.0032C53.9687 87.4285 53.6018 86.7775 52.9928 86.0501L42.7764 73.848C42.155 73.1058 41.5153 72.5544 40.8572 72.1939C40.1991 71.8333 39.5155 71.7825 38.8062 72.0415C38.097 72.3006 37.7986 72.71 37.9111 73.2698C38.0236 73.8296 38.3906 74.4806 39.012 75.2228L49.2283 87.4249C49.8498 88.1671 50.4895 88.7185 51.1476 89.0791C51.8057 89.4396 52.4893 89.4904 53.1986 89.2314Z" fill="#D91604"/>
<path d="M58.0522 79.2597L54.5101 75.0291L62.4209 72.1401L65.963 76.3707L58.0522 79.2597Z" fill="#D91604"/>
<path d="M84.6021 82.9092C82.1834 83.7925 79.8854 83.8273 77.7082 83.0137C75.5491 82.1933 73.5498 80.6847 71.7104 78.4877L62.4448 67.4212C60.5929 65.2094 59.7212 63.289 59.8296 61.66C59.9437 60.0095 61.2101 58.7426 63.6288 57.8593C66.0475 56.976 68.3455 56.9412 70.5228 57.7549C72.7182 58.5619 74.7357 60.0639 76.5751 62.2609L78.1784 64.1758L72.6681 66.1881L70.5801 63.6943C70.0084 63.0114 69.4208 62.4798 68.8173 62.0993C68.2138 61.7188 67.6028 61.6415 66.9845 61.8673C66.3662 62.0931 66.1559 62.48 66.3536 63.0281C66.5388 63.5613 66.9111 64.1619 67.4704 64.8299L77.7054 77.0543C78.2646 77.7223 78.8432 78.2573 79.4409 78.6593C80.0262 79.0464 80.6281 79.127 81.2464 78.9012C81.8647 78.6754 82.0903 78.2926 81.9233 77.7527C81.7562 77.2129 81.3868 76.6015 80.8151 75.9186L78.7271 73.4248L84.2374 71.4125L85.8407 73.3274C87.6801 75.5244 88.5337 77.4514 88.4014 79.1086C88.2872 80.759 87.0208 82.0259 84.6021 82.9092Z" fill="#D91604"/>
<path d="M100.914 76.9232C98.7135 77.7268 96.4825 77.7565 94.221 77.0123C91.947 76.2533 90.0332 74.9461 88.4796 73.0905L78.2633 60.8884C76.7097 59.0329 76.057 57.2748 76.3051 55.6141C76.5408 53.9386 77.7588 52.6991 79.9593 51.8955C82.1416 51.0985 84.3697 51.0795 86.6437 51.8385C88.9234 52.576 90.84 53.8726 92.3936 55.7281L102.61 67.9302C104.164 69.7858 104.813 71.5546 104.56 73.2367C104.311 74.8974 103.096 76.1262 100.914 76.9232ZM97.6328 73.0042C98.3421 72.7452 98.6404 72.3358 98.5279 71.776C98.403 71.2014 98.036 70.5504 97.427 69.823L87.2107 57.6209C86.5893 56.8787 85.9495 56.3273 85.2914 55.9667C84.6333 55.6062 83.9497 55.5554 83.2405 55.8144C82.5312 56.0734 82.2328 56.4828 82.3453 57.0426C82.4578 57.6024 82.8248 58.2534 83.4462 58.9956L93.6626 71.1978C94.284 71.94 94.9238 72.4914 95.5818 72.8519C96.2399 73.2125 96.9236 73.2632 97.6328 73.0042Z" fill="#D91604"/>
<path d="M117.217 70.9693C115.017 71.7729 112.786 71.8026 110.524 71.0585C108.25 70.2995 106.336 68.9922 104.783 67.1367L94.5665 54.9346C93.0129 53.079 92.3602 51.3209 92.6083 49.6603C92.844 47.9848 94.062 46.7452 96.2625 45.9416C98.4448 45.1447 100.673 45.1257 102.947 45.8847C105.227 46.6222 107.143 47.9187 108.697 49.7743L118.913 61.9764C120.467 63.8319 121.117 65.6008 120.863 67.2829C120.615 68.9436 119.399 70.1724 117.217 70.9693ZM113.936 67.0504C114.645 66.7914 114.944 66.382 114.831 65.8222C114.706 65.2475 114.339 64.5965 113.73 63.8692L103.514 51.667C102.892 50.9248 102.253 50.3734 101.595 50.0129C100.937 49.6523 100.253 49.6015 99.5437 49.8606C98.8344 50.1196 98.536 50.529 98.6486 51.0888C98.7611 51.6486 99.128 52.2996 99.7494 53.0418L109.966 65.2439C110.587 65.9861 111.227 66.5375 111.885 66.8981C112.543 67.2586 113.227 67.3094 113.936 67.0504Z" fill="#D91604"/>
<path d="M126.467 67.1843L99.0619 34.4523L104.572 32.44L117.585 47.9821L117.858 47.8825L117.514 46.9614L114.855 39.6168L120.093 37.7041L122.474 47.1851L141.252 61.7849L135.687 63.8171L124.719 54.9715L124.366 54.6351L124.312 54.6551L124.93 56.7552L131.977 65.172L126.467 67.1843Z" fill="#D91604"/>
<path d="M137.4 51.678L115.904 28.3016L122.287 25.9705L140.837 50.4228L137.4 51.678ZM143.637 60.914L139.498 55.9708L145.227 53.8788L149.365 58.822L143.637 60.914Z" fill="#D91604"/>
</svg>
